# xmcd
#
# Track frame offsets: 
#        150
#        17428
#        39183
#        55273
#        82298
#        108508
#        139900
#        157313
#        185010
#        212053
#
# Disc length: 3108 seconds
#
# Revision: 0
# Processed by: cddbd v1.5.2PL0 Copyright (c) Steve Scherf et al.
# Submitted via: ExactAudioCopy v1.0b2
#
DISCID=8d0c220a
DTITLE=Thanh Lan - Nhac Phap Chon Loc
DYEAR=1900
DGENRE=Blues
TTITLE0=Ha Vang Bien Xanh (Dernier Baiser)
TTITLE1=Van Mai Yeu Anh (Encore)
TTITLE2=Biet Khuc (Je Suis Partie)
TTITLE3=Hay Den Voi Em (Comme Toi)
TTITLE4=Tinh Cho Khong (L'Amour C'est Pour Rien)
TTITLE5=Mot Lan Den Mai Sau (Vivre Pour Toi, Mourir Pour Toi)
TTITLE6=Taste Look Coco
TTITLE7=Giong Song Thuo Nho (La Maritza)
TTITLE8=Tinh Ca Orphee (Chanson D'Orphee)
TTITLE9=Tango Ky Niem (Tango D'Amour)
EXTD=
EXTT0=
EXTT1=
EXTT2=
EXTT3=
EXTT4=
EXTT5=
EXTT6=
EXTT7=
EXTT8=
EXTT9=
PLAYORDER=
